<svg xmlns="http://www.w3.org/2000/svg" width="192" height="192" fill="#000000" viewBox="0 0 256 256"><line x1="144" y1="40" x2="112" y2="40" fill="none" stroke="#000000" stroke-linecap="round" stroke-linejoin="round" stroke-width="16"></line><line x1="112" y1="216" x2="144" y2="216" fill="none" stroke="#000000" stroke-linecap="round" stroke-linejoin="round" stroke-width="16"></line><path d="M184,40h24a8,8,0,0,1,8,8V71.99963" fill="none" stroke="#000000" stroke-linecap="round" stroke-linejoin="round" stroke-width="16"></path><line x1="216" y1="143.99963" x2="216" y2="111.99963" fill="none" stroke="#000000" stroke-linecap="round" stroke-linejoin="round" stroke-width="16"></line><path d="M184,216h24a8,8,0,0,0,8-8V183.99963" fill="none" stroke="#000000" stroke-linecap="round" stroke-linejoin="round" stroke-width="16"></path><line x1="40" y1="111.99963" x2="40" y2="143.99963" fill="none" stroke="#000000" stroke-linecap="round" stroke-linejoin="round" stroke-width="16"></line><path d="M72,216H48a8,8,0,0,1-8-8V183.99963" fill="none" stroke="#000000" stroke-linecap="round" stroke-linejoin="round" stroke-width="16"></path><path d="M72,40H48a8,8,0,0,0-8,8V71.99963" fill="none" stroke="#000000" stroke-linecap="round" stroke-linejoin="round" stroke-width="16"></path><rect x="80" y="80" width="96" height="96" stroke-width="16" stroke="#000000" stroke-linecap="round" stroke-linejoin="round" fill="none"></rect></svg>