<?xml version="1.0" encoding="UTF-8" standalone="no"?>
<!DOCTYPE svg PUBLIC "-//W3C//DTD SVG 1.1//EN" "http://www.w3.org/Graphics/SVG/1.1/DTD/svg11.dtd">
<svg width="100%" height="100%" viewBox="0 0 641 578" version="1.1" xmlns="http://www.w3.org/2000/svg" xmlns:xlink="http://www.w3.org/1999/xlink" xml:space="preserve" xmlns:serif="http://www.serif.com/" style="fill-rule:evenodd;clip-rule:evenodd;stroke-linejoin:round;stroke-miterlimit:2;">
    <g transform="matrix(1,0,0,1,-279.671,-161.411)">
        <path d="M438.404,307.821C427.388,274.892 393.369,256.59 370.99,264.077C348.61,271.563 332.452,306.651 343.468,339.581C353.665,370.061 384.562,387.657 405.818,384.517C405.664,384.784 405.563,385.077 405.52,385.382L404.87,390.802C404.859,390.899 404.853,390.996 404.853,391.093C404.853,392.433 405.955,393.535 407.295,393.535C407.576,393.535 407.854,393.486 408.119,393.391L419.068,389.466C420.036,389.118 420.685,388.195 420.685,387.167C420.685,386.501 420.413,385.863 419.931,385.402L415.984,381.63C415.844,381.501 415.689,381.39 415.522,381.298C434.48,371.081 448.623,338.368 438.404,307.821Z" style="fill:rgb(242,242,242);fill-rule:nonzero;"/>
    </g>
    <g transform="matrix(1,0,0,1,-279.671,-161.411)">
        <path d="M398.524,283.594C417.412,293.342 425.462,316.481 416.702,335.847C415.754,338.003 419.238,339.138 420.179,336.995C429.369,316.058 420.752,291.268 400.556,280.546C398.49,279.451 396.443,282.491 398.524,283.594Z" style="fill:white;fill-rule:nonzero;"/>
    </g>
    <g transform="matrix(1,0,0,1,-279.671,-161.411)">
        <path d="M884.404,259.821C873.388,226.892 839.369,208.59 816.99,216.077C794.61,223.563 778.452,258.651 789.468,291.581C799.665,322.061 830.562,339.657 851.818,336.517C851.664,336.784 851.563,337.077 851.52,337.382L850.87,342.802C850.859,342.899 850.853,342.996 850.853,343.093C850.853,344.433 851.955,345.535 853.295,345.535C853.576,345.535 853.854,345.486 854.119,345.391L865.068,341.466C866.036,341.118 866.685,340.195 866.685,339.167C866.685,338.501 866.413,337.863 865.931,337.402L861.984,333.63C861.844,333.501 861.689,333.39 861.522,333.298C880.48,323.081 894.623,290.368 884.404,259.821Z" style="fill:rgb(242,242,242);fill-rule:nonzero;"/>
    </g>
    <g transform="matrix(1,0,0,1,-279.671,-161.411)">
        <path d="M844.524,235.594C863.412,245.342 871.462,268.481 862.702,287.847C861.754,290.003 865.238,291.138 866.179,288.995C875.369,268.058 866.752,243.268 846.556,232.546C844.49,231.451 842.443,234.491 844.524,235.594Z" style="fill:white;fill-rule:nonzero;"/>
    </g>
    <g transform="matrix(1,0,0,1,-279.671,-161.411)">
        <path d="M625.404,206.821C614.388,173.892 580.369,155.59 557.99,163.077C535.61,170.563 519.452,205.651 530.468,238.581C540.665,269.061 571.562,286.657 592.818,283.517C592.664,283.784 592.563,284.077 592.52,284.382L591.87,289.802C591.859,289.899 591.853,289.996 591.853,290.093C591.853,291.433 592.955,292.535 594.295,292.535C594.576,292.535 594.854,292.486 595.119,292.391L606.068,288.466C607.036,288.118 607.685,287.195 607.685,286.167C607.685,285.501 607.413,284.863 606.931,284.402L602.984,280.63C602.844,280.501 602.689,280.39 602.522,280.298C621.48,270.081 635.623,237.368 625.404,206.821Z" style="fill:rgb(242,242,242);fill-rule:nonzero;"/>
    </g>
    <g transform="matrix(1,0,0,1,-279.671,-161.411)">
        <path d="M585.524,182.594C604.412,192.342 612.462,215.481 603.702,234.847C602.754,237.003 606.238,238.138 607.179,235.995C616.369,215.058 607.752,190.268 587.556,179.546C585.49,178.451 583.443,181.491 585.524,182.594Z" style="fill:white;fill-rule:nonzero;"/>
    </g>
    <circle cx="290.482" cy="201.238" r="2.624" style="fill:rgb(204,204,204);"/>
    <circle cx="284.889" cy="303.957" r="5.185" style="fill:rgb(204,204,204);"/>
    <circle cx="198.093" cy="286.182" r="2.996" style="fill:rgb(204,204,204);"/>
    <circle cx="243.606" cy="236.88" r="3.244" style="fill:rgb(204,204,204);"/>
    <circle cx="403.25" cy="427.447" r="2.624" style="fill:rgb(204,204,204);"/>
    <circle cx="317.301" cy="370.922" r="5.185" style="fill:rgb(204,204,204);"/>
    <circle cx="376.339" cy="304.862" r="2.996" style="fill:rgb(204,204,204);"/>
    <circle cx="396.04" cy="369.002" r="3.244" style="fill:rgb(204,204,204);"/>
    <g transform="matrix(0.766735,-0.641963,0.641963,0.766735,-523.772,535.288)">
        <ellipse cx="836.635" cy="684.242" rx="6.76" ry="21.534" style="fill:rgb(69,146,131);"/>
    </g>
    <circle cx="511.156" cy="515.353" r="43.067" style="fill:rgb(69,146,131);"/>
    <rect x="516.301" y="549.153" width="13.084" height="23.442" style="fill:rgb(69,146,131);"/>
    <rect x="490.134" y="549.153" width="13.084" height="23.442" style="fill:rgb(69,146,131);"/>
    <ellipse cx="518.482" cy="572.867" rx="10.903" ry="4.089" style="fill:rgb(69,146,131);"/>
    <ellipse cx="492.315" cy="572.322" rx="10.903" ry="4.089" style="fill:rgb(69,146,131);"/>
    <g transform="matrix(1,0,0,1,-279.671,-161.411)">
        <path d="M777.305,622.627C781.15,607.14 798.125,598.026 815.22,602.271C832.314,606.515 843.054,622.511 839.208,637.998C835.363,653.485 822.604,653.535 805.51,649.29C788.416,645.046 773.459,638.114 777.305,622.627Z" style="fill:rgb(230,230,230);fill-rule:nonzero;"/>
    </g>
    <g transform="matrix(0.428529,-0.903528,0.903528,0.428529,-448.877,884.626)">
        <ellipse cx="742.32" cy="656.78" rx="6.76" ry="21.534" style="fill:rgb(69,146,131);"/>
    </g>
    <circle cx="504.718" cy="506.266" r="14.359" style="fill:white;"/>
    <circle cx="498.816" cy="501.119" r="4.786" style="fill:rgb(69,146,131);"/>
    <g transform="matrix(1,0,0,1,-279.671,-161.411)">
        <path d="M793.397,697.591C793.5,698.157 793.551,698.731 793.551,699.306C793.551,704.557 789.23,708.878 783.979,708.878C779.372,708.878 775.386,705.553 774.561,701.02L774.558,701.002C773.616,695.8 777.638,693.959 782.84,693.017C788.043,692.075 792.455,692.389 793.397,697.591Z" style="fill:white;fill-rule:nonzero;"/>
    </g>
    <g transform="matrix(0.357029,-0.934093,0.934093,0.357029,-604.694,654.887)">
        <ellipse cx="430.438" cy="644.241" rx="21.534" ry="6.76" style="fill:rgb(69,146,131);"/>
    </g>
    <circle cx="110.959" cy="515.353" r="43.067" style="fill:rgb(69,146,131);"/>
    <rect x="91.334" y="549.153" width="13.084" height="23.442" style="fill:rgb(69,146,131);"/>
    <rect x="117.501" y="549.153" width="13.084" height="23.442" style="fill:rgb(69,146,131);"/>
    <ellipse cx="102.237" cy="572.867" rx="10.903" ry="4.089" style="fill:rgb(69,146,131);"/>
    <ellipse cx="128.404" cy="572.322" rx="10.903" ry="4.089" style="fill:rgb(69,146,131);"/>
    <circle cx="112.049" cy="504.45" r="14.719" style="fill:white;"/>
    <circle cx="112.049" cy="504.45" r="4.906" style="fill:rgb(63,61,86);"/>
    <g transform="matrix(1,0,0,1,-279.671,-161.411)">
        <path d="M348.854,636.712C345.376,621.138 356.492,605.402 373.682,601.563C390.872,597.725 407.627,607.238 411.104,622.812C414.582,638.386 403.189,644.13 385.999,647.968C368.809,651.807 352.331,652.286 348.854,636.712Z" style="fill:rgb(230,230,230);fill-rule:nonzero;"/>
    </g>
    <g transform="matrix(0.428529,-0.903528,0.903528,0.428529,-677.578,523.037)">
        <ellipse cx="342.122" cy="656.78" rx="6.76" ry="21.534" style="fill:rgb(69,146,131);"/>
    </g>
    <g transform="matrix(1,0,0,1,-279.671,-161.411)">
        <path d="M369.476,692.3C369.476,696.516 380.329,704.839 392.373,704.839C404.416,704.839 415.708,692.972 415.708,688.757C415.708,684.542 404.416,689.575 392.373,689.575C380.329,689.575 369.476,688.085 369.476,692.3Z" style="fill:white;fill-rule:nonzero;"/>
    </g>
    <circle cx="316.678" cy="474.353" r="43.067" style="fill:rgb(69,146,131);"/>
    <rect x="297.053" y="508.153" width="13.084" height="23.442" style="fill:rgb(69,146,131);"/>
    <rect x="323.22" y="508.153" width="13.084" height="23.442" style="fill:rgb(69,146,131);"/>
    <ellipse cx="307.956" cy="531.867" rx="10.903" ry="4.089" style="fill:rgb(69,146,131);"/>
    <ellipse cx="334.123" cy="531.322" rx="10.903" ry="4.089" style="fill:rgb(69,146,131);"/>
    <g transform="matrix(1,0,0,1,-279.671,-161.411)">
        <path d="M554.573,595.712C551.096,580.138 562.212,564.402 579.402,560.563C596.592,556.725 613.346,566.239 616.823,581.812C620.301,597.386 608.908,603.13 591.718,606.968C574.529,610.807 558.05,611.286 554.573,595.712Z" style="fill:rgb(249,168,38);fill-rule:nonzero;"/>
    </g>
    <g transform="matrix(0.706834,-0.707379,0.707379,0.706834,-525.455,468.824)">
        <ellipse cx="637.453" cy="611.642" rx="23.892" ry="7.501" style="fill:rgb(69,146,131);"/>
    </g>
    <g transform="matrix(0.707379,-0.706834,0.706834,0.707379,-554.717,403.493)">
        <ellipse cx="544.748" cy="614.642" rx="7.501" ry="23.892" style="fill:rgb(69,146,131);"/>
    </g>
    <g transform="matrix(1,0,0,1,-279.671,-161.411)">
        <path d="M858.178,362.432C856.748,318.272 826.503,283.415 790.623,284.577C710.77,286.943 708.82,433.378 785.916,443.897L784.284,456.872L808.095,456.101L805.626,443.259C836.64,436.404 859.474,402.468 858.178,362.432Z" style="fill:rgb(255,101,132);fill-rule:nonzero;"/>
    </g>
    <g transform="matrix(1,0,0,1,-279.671,-161.411)">
        <path d="M750.914,386.915L741.919,387.207C738.393,370.443 737.834,353.19 740.269,336.233L749.264,335.942C745.942,353.692 746.492,370.683 750.914,386.915Z" style="fill:white;fill-rule:nonzero;"/>
    </g>
    <g transform="matrix(0.999476,-0.0323587,0.0323587,0.999476,-293.702,-135.424)">
        <rect x="782.366" y="443.492" width="27" height="6" style="fill:rgb(153,153,153);"/>
    </g>
    <path d="M451.208,511.273L448.491,510.001L515.303,283.429L518.02,284.702L451.208,511.273Z" style="fill:rgb(153,153,153);fill-rule:nonzero;"/>
    <g transform="matrix(1,0,0,1,-279.671,-161.411)">
        <path d="M913.476,399.774C929.792,358.714 915.975,314.682 882.614,301.425C808.454,271.719 748.214,405.204 814.702,445.623L808.026,456.868L830.165,465.666L833.029,452.905C864.201,459 898.683,436.999 913.476,399.774Z" style="fill:rgb(249,168,38);fill-rule:nonzero;"/>
    </g>
    <g transform="matrix(1,0,0,1,-279.671,-161.411)">
        <path d="M805.355,379.406L796.991,376.082C800.449,359.305 806.824,343.263 815.825,328.687L824.189,332.011C814.057,346.96 807.779,362.758 805.355,379.406Z" style="fill:white;fill-rule:nonzero;"/>
    </g>
    <g transform="matrix(0.369291,-0.929314,0.929314,0.369291,-180.756,888.282)">
        <rect x="819.789" y="438.474" width="6" height="27" style="fill:rgb(153,153,153);"/>
    </g>
    <path d="M450.68,505.309L448.073,503.825L541.351,290.957L543.958,292.44L450.68,505.309Z" style="fill:rgb(153,153,153);fill-rule:nonzero;"/>
    <g transform="matrix(1,0,0,1,-279.671,-161.411)">
        <path d="M406.464,365.285C388.811,324.782 347.822,303.575 314.914,317.918C241.592,349.636 293.913,486.419 369.436,467.692L372.716,480.352L394.555,470.834L387.514,459.813C413.797,441.979 422.468,402.006 406.464,365.285Z" style="fill:rgb(249,168,38);fill-rule:nonzero;"/>
    </g>
    <g transform="matrix(1,0,0,1,-279.671,-161.411)">
        <path d="M315.849,427.687L307.598,431.282C298.125,417.01 291.228,401.186 287.222,384.53L295.472,380.934C298.947,398.655 305.739,414.239 315.849,427.687Z" style="fill:white;fill-rule:nonzero;"/>
    </g>
    <g transform="matrix(0.916714,-0.399544,0.399544,0.916714,-434.41,29.1189)">
        <rect x="366.14" y="463.426" width="27" height="6" style="fill:rgb(153,153,153);"/>
    </g>
    <g transform="matrix(1,0,0,1,-279.671,-161.411)">
        <path d="M448.083,673.263C447.284,673.461 446.464,672.967 446.266,672.169L381.059,465.552L383.97,464.83L449.178,671.446C449.207,671.564 449.222,671.686 449.222,671.807C449.222,672.494 448.75,673.098 448.083,673.263Z" style="fill:rgb(153,153,153);fill-rule:nonzero;"/>
    </g>
    <g transform="matrix(1,0,0,1,-279.671,-161.411)">
        <path d="M465.51,738.589L308.51,738.589C307.962,738.589 307.51,738.138 307.51,737.589C307.51,737.041 307.962,736.589 308.51,736.589L465.51,736.589C466.059,736.589 466.51,737.041 466.51,737.589C466.51,738.138 466.059,738.589 465.51,738.589Z" style="fill:rgb(204,204,204);fill-rule:nonzero;"/>
    </g>
    <g transform="matrix(1,0,0,1,-279.671,-161.411)">
        <path d="M864.51,738.589L707.51,738.589C706.962,738.589 706.51,738.138 706.51,737.589C706.51,737.041 706.962,736.589 707.51,736.589L864.51,736.589C865.059,736.589 865.51,737.041 865.51,737.589C865.51,738.138 865.059,738.589 864.51,738.589Z" style="fill:rgb(204,204,204);fill-rule:nonzero;"/>
    </g>
    <g transform="matrix(1,0,0,1,-279.671,-161.411)">
        <path d="M677.51,697.589L520.51,697.589C519.962,697.589 519.51,697.138 519.51,696.589C519.51,696.041 519.962,695.589 520.51,695.589L677.51,695.589C678.059,695.589 678.51,696.041 678.51,696.589C678.51,697.138 678.059,697.589 677.51,697.589Z" style="fill:rgb(204,204,204);fill-rule:nonzero;"/>
    </g>
    <circle cx="314.866" cy="468.25" r="14.719" style="fill:white;"/>
    <circle cx="314.866" cy="468.25" r="4.906" style="fill:rgb(69,146,131);"/>
    <g transform="matrix(1,0,0,1,-279.671,-161.411)">
        <path d="M606.222,656.883C606.325,657.448 606.377,658.022 606.377,658.597C606.377,663.849 602.056,668.17 596.805,668.17C592.198,668.17 588.212,664.844 587.387,660.312L587.384,660.293C586.442,655.091 590.464,653.25 595.666,652.308C600.868,651.367 605.281,651.681 606.222,656.883Z" style="fill:white;fill-rule:nonzero;"/>
    </g>
</svg>
