<?xml version="1.0" encoding="UTF-8" standalone="no"?>
<!DOCTYPE svg PUBLIC "-//W3C//DTD SVG 1.1//EN" "http://www.w3.org/Graphics/SVG/1.1/DTD/svg11.dtd">
<svg width="100%" height="100%" viewBox="0 0 1000 850" version="1.1" xmlns="http://www.w3.org/2000/svg" xmlns:xlink="http://www.w3.org/1999/xlink" xml:space="preserve" xmlns:serif="http://www.serif.com/" style="fill-rule:evenodd;clip-rule:evenodd;stroke-linejoin:round;stroke-miterlimit:2;">
    <g transform="matrix(1,0,0,1,-0.0859346,-36.7679)">
        <path d="M287.708,667.606L307.469,787.728L364.652,652.615L287.708,667.606Z" style="fill:rgb(112,224,0);"/>
        <path d="M205.674,705.21L287.708,667.606L307.469,787.728C275.591,758.635 242.124,730.77 205.674,705.21Z" style="fill:rgb(56,176,0);"/>
        <path d="M201.887,619.982L205.674,705.21L287.708,667.606L201.887,619.982Z" style="fill:rgb(158,240,26);"/>
        <path d="M311.58,585.967C331.332,607.779 349.057,629.806 364.652,652.615L287.708,667.606L311.58,585.967Z" style="fill:rgb(204,255,51);"/>
        <path d="M226.434,506.544C256.709,529.633 284.856,556.066 311.58,585.967L201.887,619.982L226.434,506.544Z" style="fill:rgb(112,224,0);"/>
        <path d="M153.561,572.553L226.434,506.544L201.887,619.982L153.561,572.553Z" style="fill:rgb(158,240,26);"/>
        <path d="M146.467,667.606L153.561,572.553L201.887,619.982L146.467,667.606Z" style="fill:rgb(204,255,51);"/>
        <path d="M201.887,619.982L205.674,705.21C186.29,691.638 166.749,678.766 146.467,667.587L201.887,619.982Z" style="fill:rgb(0,128,0);"/>
        <path d="M153.561,572.555L146.297,457.904C175.768,470.853 202.106,487.505 226.434,506.533L153.561,572.555Z" style="fill:rgb(56,176,0);"/>
        <path d="M13.487,610.698C62.191,561.221 106.648,510.328 146.514,457.904L153.561,572.537L13.487,610.698Z" style="fill:rgb(0,100,0);"/>
        <path d="M13.487,610.698C56.04,621.358 109.923,646.812 146.467,667.606L153.561,572.553L13.487,610.698Z" style="fill:rgb(112,224,0);"/>
        <path d="M377.414,857.01C355.058,833.27 332.038,809.953 307.469,787.622L431.363,774.18L377.414,857.01Z" style="fill:rgb(0,114,0);"/>
        <path d="M431.363,774.18C457.572,734.423 484.61,696.327 512.352,659.638L364.652,652.615L431.363,774.18Z" style="fill:rgb(158,240,26);"/>
        <path d="M364.652,652.615L461.805,587.182L512.068,659.814L364.652,652.615Z" style="fill:rgb(56,176,0);"/>
        <path d="M461.805,587.182L454.613,492.784C422.451,545.439 392.518,598.732 364.652,652.615L461.805,587.182Z" style="fill:rgb(0,114,0);"/>
        <path d="M461.805,587.182L609.469,535.46C574.658,576.116 542.292,617.587 512.194,659.814" style="fill:rgb(204,255,51);"/>
        <path d="M454.664,492.784L609.469,535.46L461.805,587.182L454.664,492.784Z" style="fill:rgb(158,240,26);"/>
        <path d="M534.247,366.976L609.469,535.46L454.664,492.784C457.304,484.403 523.576,378.606 534.247,366.976Z" style="fill:rgb(56,176,0);"/>
        <path d="M609.469,262.523L699.347,283.482L622.824,397.558L609.469,262.523Z" style="fill:rgb(204,255,51);"/>
        <path d="M692.843,165.454L698.216,283.482L609.469,262.523C636.171,228.86 664.095,196.662 692.843,165.454Z" style="fill:rgb(56,176,0);"/>
        <path d="M698.216,283.482L870.206,283.482C827.715,314.9 788.282,347.192 754.532,381.107C735.76,348.673 716.988,316.187 698.216,283.482Z" style="fill:rgb(0,100,0);"/>
        <path d="M692.641,165.454L870.206,283.482L698.216,283.482L692.641,165.454Z" style="fill:rgb(112,224,0);"/>
        <path d="M870.206,283.482L897.666,150.282L692.641,165.454L870.206,283.482Z" style="fill:rgb(0,128,0);"/>
        <path d="M812.494,66.526C838.421,96.361 867.136,124.027 897.666,150.282L692.641,165.454C727.843,128.229 767.574,95.057 812.494,66.526Z" style="fill:rgb(158,240,26);"/>
        <path d="M897.666,150.282C925.641,174.179 955.129,196.565 986.685,216.882C945.218,234.593 906.559,257.077 870.206,283.482L897.666,150.282Z" style="fill:rgb(204,255,51);"/>
        <path d="M609.469,535.46L622.824,397.29L754.532,381.107C700.741,428.934 652.471,480.441 609.469,535.46Z" style="fill:rgb(56,176,0);"/>
        <path d="M534.247,366.976L622.824,397.29L609.469,535.46L534.247,366.976Z" style="fill:rgb(158,240,26);"/>
        <path d="M307.469,787.728L431.363,774.18L364.652,652.615L307.469,787.728Z" style="fill:rgb(204,255,51);"/>
        <path d="M622.824,397.381L698.216,283.482L754.532,381.107L622.824,397.381Z" style="fill:rgb(158,240,26);"/>
        <path d="M534.247,366.976L609.469,262.545L622.824,397.381L534.247,366.976Z" style="fill:rgb(0,128,0);"/>
        <path d="M201.887,620.08L287.788,667.606L311.58,585.967L201.887,620.08Z" style="fill:rgb(0,100,0);"/>
    </g>
</svg>
