<?xml version="1.0" encoding="UTF-8" standalone="no"?>
<!DOCTYPE svg PUBLIC "-//W3C//DTD SVG 1.1//EN" "http://www.w3.org/Graphics/SVG/1.1/DTD/svg11.dtd">
<svg width="100%" height="100%" viewBox="0 0 3000 1000" version="1.1" xmlns="http://www.w3.org/2000/svg" xmlns:xlink="http://www.w3.org/1999/xlink" xml:space="preserve" xmlns:serif="http://www.serif.com/" style="fill-rule:evenodd;clip-rule:evenodd;stroke-linejoin:round;stroke-miterlimit:2;">
    <g transform="matrix(0.975985,0,0,0.975985,12.1907,49.3214)">
        <path d="M287.708,667.606L307.469,787.728L364.652,652.615L287.708,667.606Z" style="fill:rgb(112,224,0);"/>
        <path d="M205.674,705.21L287.708,667.606L307.469,787.728C275.591,758.635 242.124,730.77 205.674,705.21Z" style="fill:rgb(56,176,0);"/>
        <path d="M201.887,619.982L205.674,705.21L287.708,667.606L201.887,619.982Z" style="fill:rgb(158,240,26);"/>
        <path d="M311.58,585.967C331.332,607.779 349.057,629.806 364.652,652.615L287.708,667.606L311.58,585.967Z" style="fill:rgb(204,255,51);"/>
        <path d="M226.434,506.544C256.709,529.633 284.856,556.066 311.58,585.967L201.887,619.982L226.434,506.544Z" style="fill:rgb(112,224,0);"/>
        <path d="M153.561,572.553L226.434,506.544L201.887,619.982L153.561,572.553Z" style="fill:rgb(158,240,26);"/>
        <path d="M146.467,667.606L153.561,572.553L201.887,619.982L146.467,667.606Z" style="fill:rgb(204,255,51);"/>
        <path d="M201.887,619.982L205.674,705.21C186.29,691.638 166.749,678.766 146.467,667.587L201.887,619.982Z" style="fill:rgb(0,128,0);"/>
        <path d="M153.561,572.555L146.297,457.904C175.768,470.853 202.106,487.505 226.434,506.533L153.561,572.555Z" style="fill:rgb(56,176,0);"/>
        <path d="M13.487,610.698C62.191,561.221 106.648,510.328 146.514,457.904L153.561,572.537L13.487,610.698Z" style="fill:rgb(0,100,0);"/>
        <path d="M13.487,610.698C56.04,621.358 109.923,646.812 146.467,667.606L153.561,572.553L13.487,610.698Z" style="fill:rgb(112,224,0);"/>
        <path d="M377.414,857.01C355.058,833.27 332.038,809.953 307.469,787.622L431.363,774.18L377.414,857.01Z" style="fill:rgb(0,114,0);"/>
        <path d="M431.363,774.18C457.572,734.423 484.61,696.327 512.352,659.638L364.652,652.615L431.363,774.18Z" style="fill:rgb(158,240,26);"/>
        <path d="M364.652,652.615L461.805,587.182L512.068,659.814L364.652,652.615Z" style="fill:rgb(56,176,0);"/>
        <path d="M461.805,587.182L454.613,492.784C422.451,545.439 392.518,598.732 364.652,652.615L461.805,587.182Z" style="fill:rgb(0,114,0);"/>
        <path d="M461.805,587.182L609.469,535.46C574.658,576.116 542.292,617.587 512.194,659.814" style="fill:rgb(204,255,51);"/>
        <path d="M454.664,492.784L609.469,535.46L461.805,587.182L454.664,492.784Z" style="fill:rgb(158,240,26);"/>
        <path d="M534.247,366.976L609.469,535.46L454.664,492.784C457.304,484.403 523.576,378.606 534.247,366.976Z" style="fill:rgb(56,176,0);"/>
        <path d="M609.469,262.523L699.347,283.482L622.824,397.558L609.469,262.523Z" style="fill:rgb(204,255,51);"/>
        <path d="M692.843,165.454L698.216,283.482L609.469,262.523C636.171,228.86 664.095,196.662 692.843,165.454Z" style="fill:rgb(56,176,0);"/>
        <path d="M698.216,283.482L870.206,283.482C827.715,314.9 788.282,347.192 754.532,381.107C735.76,348.673 716.988,316.187 698.216,283.482Z" style="fill:rgb(0,100,0);"/>
        <path d="M692.641,165.454L870.206,283.482L698.216,283.482L692.641,165.454Z" style="fill:rgb(112,224,0);"/>
        <path d="M870.206,283.482L897.666,150.282L692.641,165.454L870.206,283.482Z" style="fill:rgb(0,128,0);"/>
        <path d="M812.494,66.526C838.421,96.361 867.136,124.027 897.666,150.282L692.641,165.454C727.843,128.229 767.574,95.057 812.494,66.526Z" style="fill:rgb(158,240,26);"/>
        <path d="M897.666,150.282C925.641,174.179 955.129,196.565 986.685,216.882C945.218,234.593 906.559,257.077 870.206,283.482L897.666,150.282Z" style="fill:rgb(204,255,51);"/>
        <path d="M609.469,535.46L622.824,397.29L754.532,381.107C700.741,428.934 652.471,480.441 609.469,535.46Z" style="fill:rgb(56,176,0);"/>
        <path d="M534.247,366.976L622.824,397.29L609.469,535.46L534.247,366.976Z" style="fill:rgb(158,240,26);"/>
        <path d="M307.469,787.728L431.363,774.18L364.652,652.615L307.469,787.728Z" style="fill:rgb(204,255,51);"/>
        <path d="M622.824,397.381L698.216,283.482L754.532,381.107L622.824,397.381Z" style="fill:rgb(158,240,26);"/>
        <path d="M534.247,366.976L609.469,262.545L622.824,397.381L534.247,366.976Z" style="fill:rgb(0,128,0);"/>
        <path d="M201.887,620.08L287.788,667.606L311.58,585.967L201.887,620.08Z" style="fill:rgb(0,100,0);"/>
    </g>
    <g transform="matrix(1,0,0,1,-559.842,-407.016)">
        <path d="M1302.1,1231.42C1295.44,1231.42 1292.1,1227.86 1292.1,1220.75L1291.44,975.416C1291.44,968.305 1294.99,964.75 1302.1,964.75L1325.1,964.75C1329.77,964.75 1332.71,965.861 1333.94,968.083C1335.16,970.305 1335.77,973.528 1335.77,977.75L1335.77,1187.08L1446.44,1187.08C1450.66,1187.08 1453.6,1187.36 1455.27,1187.92C1456.94,1188.47 1458.05,1189.58 1458.6,1191.25C1459.16,1192.92 1459.44,1195.86 1459.44,1200.08L1459.44,1218.08C1459.44,1222.53 1458.82,1225.86 1457.6,1228.08C1456.38,1230.31 1453.44,1231.42 1448.77,1231.42L1302.1,1231.42Z" style="fill:white;fill-rule:nonzero;"/>
        <path d="M1503.44,1231.42C1500.32,1231.42 1497.77,1230.42 1495.77,1228.42C1493.77,1226.42 1492.77,1223.86 1492.77,1220.75L1492.1,975.416C1492.1,972.305 1493.21,969.75 1495.44,967.75C1497.66,965.75 1500.32,964.75 1503.44,964.75L1664.44,964.75C1669.32,964.75 1672.38,965.805 1673.6,967.916C1674.82,970.028 1675.44,973.305 1675.44,977.75L1675.44,996.083C1675.44,1000.31 1675.16,1003.25 1674.6,1004.92C1674.05,1006.58 1672.88,1007.69 1671.1,1008.25C1669.32,1008.81 1666.32,1009.08 1662.1,1009.08L1537.1,1009.08L1537.1,1068.08L1648.1,1068.08C1651.21,1068.08 1653.77,1069.14 1655.77,1071.25C1657.77,1073.36 1658.77,1075.97 1658.77,1079.08L1658.77,1101.75C1658.77,1104.86 1657.77,1107.47 1655.77,1109.58C1653.77,1111.69 1651.21,1112.75 1648.1,1112.75L1537.1,1112.75L1537.1,1187.08L1666.44,1187.08C1670.66,1187.08 1673.66,1187.36 1675.44,1187.92C1677.21,1188.47 1678.38,1189.58 1678.94,1191.25C1679.49,1192.92 1679.77,1195.86 1679.77,1200.08L1679.77,1218.08C1679.77,1222.53 1679.16,1225.86 1677.94,1228.08C1676.71,1230.31 1673.66,1231.42 1668.77,1231.42L1503.44,1231.42Z" style="fill:white;fill-rule:nonzero;"/>
        <path d="M1919.1,1220.75C1919.1,1227.86 1915.55,1231.42 1908.44,1231.42L1884.44,1231.42C1881.32,1231.42 1879.16,1230.81 1877.94,1229.58C1876.71,1228.36 1875.32,1226.08 1873.77,1222.75L1843.44,1135.08L1761.44,1171.42L1743.1,1222.75C1741.55,1226.31 1740.21,1228.64 1739.1,1229.75C1737.99,1230.86 1735.66,1231.42 1732.1,1231.42L1709.1,1231.42C1706.21,1231.42 1703.66,1230.42 1701.44,1228.42C1699.21,1226.42 1698.1,1223.86 1698.1,1220.75C1698.1,1219.86 1711.32,1180.75 1737.77,1103.42C1764.21,1026.08 1779.32,982.75 1783.1,973.416C1784.66,970.305 1786.1,968.083 1787.44,966.75C1788.77,965.416 1790.88,964.75 1793.77,964.75L1823.1,964.75C1825.77,964.75 1827.71,965.305 1828.94,966.416C1830.16,967.528 1831.16,968.861 1831.94,970.416C1832.71,971.972 1833.21,972.972 1833.44,973.416L1918.77,1216.75L1919.1,1220.75ZM1827.44,1090.75C1826.1,1087.19 1825.1,1084.75 1824.44,1083.42C1821.55,1075.19 1819.99,1070.64 1819.77,1069.75C1819.32,1067.97 1818.77,1066.25 1818.1,1064.58C1817.44,1062.92 1816.88,1061.19 1816.44,1059.42L1808.44,1035.42L1781.44,1111.08L1827.44,1090.75Z" style="fill:white;fill-rule:nonzero;"/>
        <path d="M2072.77,964.75C2082.55,964.75 2091.77,967.361 2100.44,972.583C2109.1,977.805 2116.05,984.75 2121.27,993.416C2126.49,1002.08 2129.1,1011.42 2129.1,1021.42C2129.1,1033.19 2126.32,1043.14 2120.77,1051.25C2115.21,1059.36 2107.1,1067.08 2096.44,1074.42L2101.77,1088.42L2116.77,1129.08C2129.44,1163.75 2140.55,1193.31 2150.1,1217.75C2150.99,1220.42 2151.44,1222.19 2151.44,1223.08C2151.44,1225.75 2150.38,1227.81 2148.27,1229.25C2146.16,1230.69 2143.32,1231.42 2139.77,1231.42L2114.44,1231.42C2111.32,1231.42 2109.05,1230.69 2107.6,1229.25C2106.16,1227.81 2104.88,1225.75 2103.77,1223.08L2055.77,1096.08L2026.44,1111.75L1988.44,1131.75L1988.44,1218.42C1988.44,1222.64 1987.82,1225.86 1986.6,1228.08C1985.38,1230.31 1982.44,1231.42 1977.77,1231.42L1954.1,1231.42C1950.99,1231.42 1948.49,1230.36 1946.6,1228.25C1944.71,1226.14 1943.77,1223.64 1943.77,1220.75L1943.1,975.416C1943.1,972.75 1944.16,970.305 1946.27,968.083C1948.38,965.861 1950.99,964.75 1954.1,964.75L2072.77,964.75ZM1988.44,1081.75C2045.55,1053.53 2076.44,1035.75 2081.1,1028.42L2081.1,1028.75C2082.44,1026.75 2083.1,1024.42 2083.1,1021.75C2083.1,1018.19 2081.88,1015.19 2079.44,1012.75C2076.99,1010.31 2073.88,1009.08 2070.1,1009.08L1988.44,1009.08L1988.44,1081.75Z" style="fill:white;fill-rule:nonzero;"/>
        <path d="M2379.77,1220.75C2379.77,1223.42 2378.71,1225.86 2376.6,1228.08C2374.49,1230.31 2371.88,1231.42 2368.77,1231.42L2346.1,1231.42C2341.88,1231.42 2338.77,1229.75 2336.77,1226.42C2308.1,1183.53 2269.55,1126.31 2221.1,1054.75L2221.1,1220.75C2221.1,1223.42 2220.05,1225.86 2217.94,1228.08C2215.82,1230.31 2213.21,1231.42 2210.1,1231.42L2187.1,1231.42C2183.99,1231.42 2181.55,1230.36 2179.77,1228.25C2177.99,1226.14 2177.1,1223.64 2177.1,1220.75L2176.44,975.416C2176.44,972.528 2177.44,970.028 2179.44,967.916C2181.44,965.805 2183.99,964.75 2187.1,964.75L2211.77,964.75C2215.77,964.75 2218.77,966.528 2220.77,970.083L2220.77,969.75L2335.1,1141.75L2335.1,975.416C2335.1,972.75 2336.16,970.305 2338.27,968.083C2340.38,965.861 2342.99,964.75 2346.1,964.75L2368.77,964.75C2371.88,964.75 2374.49,965.861 2376.6,968.083C2378.71,970.305 2379.77,972.75 2379.77,975.416L2379.77,1220.75Z" style="fill:white;fill-rule:nonzero;"/>
        <path d="M2649.1,1123.75C2649.1,1143.75 2643.88,1162.25 2633.44,1179.25C2622.99,1196.25 2608.88,1209.69 2591.1,1219.58C2573.32,1229.47 2553.88,1234.42 2532.77,1234.42C2511.66,1234.42 2492.21,1229.47 2474.44,1219.58C2456.66,1209.69 2442.49,1196.25 2431.94,1179.25C2421.38,1162.25 2416.1,1143.75 2416.1,1123.75L2416.1,1071.42C2416.1,1051.42 2421.38,1032.97 2431.94,1016.08C2442.49,999.194 2456.71,985.805 2474.6,975.916C2492.49,966.028 2511.99,961.083 2533.1,961.083C2554.21,961.083 2573.66,966.028 2591.44,975.916C2609.21,985.805 2623.27,999.139 2633.6,1015.92C2643.94,1032.69 2649.1,1051.19 2649.1,1071.42L2649.1,1123.75ZM2604.1,1071.42C2604.1,1059.19 2600.88,1047.86 2594.44,1037.42C2587.99,1026.97 2579.32,1018.69 2568.44,1012.58C2557.55,1006.47 2545.66,1003.42 2532.77,1003.42C2519.88,1003.42 2507.94,1006.53 2496.94,1012.75C2485.94,1018.97 2477.21,1027.25 2470.77,1037.58C2464.32,1047.92 2461.1,1059.19 2461.1,1071.42L2461.1,1123.75C2461.1,1135.97 2464.32,1147.31 2470.77,1157.75C2477.21,1168.19 2485.94,1176.47 2496.94,1182.58C2507.94,1188.69 2519.88,1191.75 2532.77,1191.75C2545.66,1191.75 2557.55,1188.69 2568.44,1182.58C2579.32,1176.47 2587.99,1168.19 2594.44,1157.75C2600.88,1147.31 2604.1,1135.97 2604.1,1123.75L2604.1,1071.42Z" style="fill:white;fill-rule:nonzero;"/>
        <path d="M2794.77,1218.42C2794.77,1222.64 2794.16,1225.86 2792.94,1228.08C2791.71,1230.31 2788.77,1231.42 2784.1,1231.42L2761.1,1231.42C2756.44,1231.42 2753.49,1230.31 2752.27,1228.08C2751.05,1225.86 2750.44,1222.64 2750.44,1218.42L2750.44,1007.75L2685.77,1007.75C2679.99,1007.75 2676.32,1006.92 2674.77,1005.25C2673.21,1003.58 2672.44,1000.08 2672.44,994.75L2672.44,977.75C2672.44,973.528 2673.05,970.305 2674.27,968.083C2675.49,965.861 2678.44,964.75 2683.1,964.75L2860.77,964.75C2865.44,964.75 2868.44,965.861 2869.77,968.083C2871.1,970.305 2871.77,973.528 2871.77,977.75L2871.77,994.75C2871.77,1000.31 2871.05,1003.86 2869.6,1005.42C2868.16,1006.97 2864.55,1007.75 2858.77,1007.75L2794.77,1007.75L2794.77,1218.42Z" style="fill:white;fill-rule:nonzero;"/>
        <path d="M3104.1,1220.75C3104.1,1227.86 3100.55,1231.42 3093.44,1231.42L3069.44,1231.42C3066.32,1231.42 3064.16,1230.81 3062.94,1229.58C3061.71,1228.36 3060.32,1226.08 3058.77,1222.75L3028.44,1135.08L2946.44,1171.42L2928.1,1222.75C2926.55,1226.31 2925.21,1228.64 2924.1,1229.75C2922.99,1230.86 2920.66,1231.42 2917.1,1231.42L2894.1,1231.42C2891.21,1231.42 2888.66,1230.42 2886.44,1228.42C2884.21,1226.42 2883.1,1223.86 2883.1,1220.75C2883.1,1219.86 2896.32,1180.75 2922.77,1103.42C2949.21,1026.08 2964.32,982.75 2968.1,973.416C2969.66,970.305 2971.1,968.083 2972.44,966.75C2973.77,965.416 2975.88,964.75 2978.77,964.75L3008.1,964.75C3010.77,964.75 3012.71,965.305 3013.94,966.416C3015.16,967.528 3016.16,968.861 3016.94,970.416C3017.71,971.972 3018.21,972.972 3018.44,973.416L3103.77,1216.75L3104.1,1220.75ZM3012.44,1090.75C3011.1,1087.19 3010.1,1084.75 3009.44,1083.42C3006.55,1075.19 3004.99,1070.64 3004.77,1069.75C3004.32,1067.97 3003.77,1066.25 3003.1,1064.58C3002.44,1062.92 3001.88,1061.19 3001.44,1059.42L2993.44,1035.42L2966.44,1111.08L3012.44,1090.75Z" style="fill:white;fill-rule:nonzero;"/>
        <path d="M3237.77,1218.42C3237.77,1222.64 3237.16,1225.86 3235.94,1228.08C3234.71,1230.31 3231.77,1231.42 3227.1,1231.42L3204.1,1231.42C3199.44,1231.42 3196.49,1230.31 3195.27,1228.08C3194.05,1225.86 3193.44,1222.64 3193.44,1218.42L3193.44,1007.75L3128.77,1007.75C3122.99,1007.75 3119.32,1006.92 3117.77,1005.25C3116.21,1003.58 3115.44,1000.08 3115.44,994.75L3115.44,977.75C3115.44,973.528 3116.05,970.305 3117.27,968.083C3118.49,965.861 3121.44,964.75 3126.1,964.75L3303.77,964.75C3308.44,964.75 3311.44,965.861 3312.77,968.083C3314.1,970.305 3314.77,973.528 3314.77,977.75L3314.77,994.75C3314.77,1000.31 3314.05,1003.86 3312.6,1005.42C3311.16,1006.97 3307.55,1007.75 3301.77,1007.75L3237.77,1007.75L3237.77,1218.42Z" style="fill:white;fill-rule:nonzero;"/>
        <path d="M3352.77,1231.42C3349.66,1231.42 3347.1,1230.42 3345.1,1228.42C3343.1,1226.42 3342.1,1223.86 3342.1,1220.75L3341.44,975.416C3341.44,972.305 3342.55,969.75 3344.77,967.75C3346.99,965.75 3349.66,964.75 3352.77,964.75L3513.77,964.75C3518.66,964.75 3521.71,965.805 3522.94,967.916C3524.16,970.028 3524.77,973.305 3524.77,977.75L3524.77,996.083C3524.77,1000.31 3524.49,1003.25 3523.94,1004.92C3523.38,1006.58 3522.21,1007.69 3520.44,1008.25C3518.66,1008.81 3515.66,1009.08 3511.44,1009.08L3386.44,1009.08L3386.44,1068.08L3497.44,1068.08C3500.55,1068.08 3503.1,1069.14 3505.1,1071.25C3507.1,1073.36 3508.1,1075.97 3508.1,1079.08L3508.1,1101.75C3508.1,1104.86 3507.1,1107.47 3505.1,1109.58C3503.1,1111.69 3500.55,1112.75 3497.44,1112.75L3386.44,1112.75L3386.44,1187.08L3515.77,1187.08C3519.99,1187.08 3522.99,1187.36 3524.77,1187.92C3526.55,1188.47 3527.71,1189.58 3528.27,1191.25C3528.82,1192.92 3529.1,1195.86 3529.1,1200.08L3529.1,1218.08C3529.1,1222.53 3528.49,1225.86 3527.27,1228.08C3526.05,1230.31 3522.99,1231.42 3518.1,1231.42L3352.77,1231.42Z" style="fill:white;fill-rule:nonzero;"/>
    </g>
</svg>
